# xmcd CD database file
#
# Track frame offsets:
#	150
#	15337
#	33987
#	57306
#	72161
#	94999
#	111813
#	132474
#	156672
#	175478
#	196511
#	217185
#	244616
#	265033
#	286055
#	309425
#
# Disc length: 4554 seconds
#
# Revision: 1
# Processed by: cddbd v1.5.1PL2 Copyright (c) Steve Scherf et al.
# Submitted via: CDex 1.60beta1-cs1
#
DISCID=e211c810
DTITLE=Rohff - Au-Delà De Mes Limites [CD 1)
DYEAR=2005
DGENRE=Rap
TTITLE0=Le cauchemar du rap francais
TTITLE1=La puissance
TTITLE2=J'espère que
TTITLE3=Tout se paye
TTITLE4=Avec ou sans
TTITLE5=Dis mon nom [feat. Jasmin Lopez]
TTITLE6=Génération Mc Gyver - la débrouille [feat. Ikbal Vockal and Alain 2 L'ombre]
TTITLE7=La hass (Version 2)
TTITLE8=Personne [feat. Humphrey]
TTITLE9=Premier sur l'ghetto
TTITLE10=Bol d'air [feat. Vitaa and Jasmin Lopez]
TTITLE11=Le pouvoir
TTITLE12=Le temps passe
TTITLE13=Arrete ta flûte
TTITLE14=Starfuckeuze
TTITLE15=Relation de merde
EXTD=YEAR: 2005
EXTT0=
EXTT1=
EXTT2=
EXTT3=
EXTT4=
EXTT5=
EXTT6=
EXTT7=
EXTT8=
EXTT9=
EXTT10=
EXTT11=
EXTT12=
EXTT13=
EXTT14=
EXTT15=
PLAYORDER=
